<svg xmlns="http://www.w3.org/2000/svg" viewBox="0 0 900 360" role="img" aria-labelledby="title desc">
  <title id="title">Acompanhamento de projetos</title>
  <desc id="desc">Quadro de acompanhamento com status e pendencias.</desc>
  <rect width="900" height="360" rx="18" fill="#eef5f1"/>
  <g fill="#ffffff" stroke="#cddbd3">
    <rect x="84" y="70" width="210" height="220" rx="12"/>
    <rect x="346" y="70" width="210" height="220" rx="12"/>
    <rect x="608" y="70" width="210" height="220" rx="12"/>
  </g>
  <g fill="#1f6f43">
    <rect x="118" y="104" width="142" height="14" rx="7"/>
    <rect x="380" y="104" width="142" height="14" rx="7"/>
    <rect x="642" y="104" width="142" height="14" rx="7"/>
  </g>
  <g fill="#dbe7e0">
    <rect x="118" y="150" width="142" height="20" rx="10"/>
    <rect x="118" y="190" width="110" height="20" rx="10"/>
    <rect x="380" y="150" width="142" height="20" rx="10"/>
    <rect x="380" y="190" width="88" height="20" rx="10"/>
    <rect x="642" y="150" width="142" height="20" rx="10"/>
    <rect x="642" y="190" width="120" height="20" rx="10"/>
  </g>
  <text x="450" y="324" font-family="Arial, sans-serif" font-size="19" fill="#14482d" text-anchor="middle">Status, prazos e pendencias</text>
</svg>
